<svg xmlns="http://www.w3.org/2000/svg" width="9.521" height="21.548" viewBox="0 0 9.521 21.548">
  <g id="info" transform="translate(-31.139)">
    <path id="Path_136" data-name="Path 136" d="M40.375,19.222l-.3,1.231q-1.355.535-2.162.814a5.7,5.7,0,0,1-1.875.28,3.743,3.743,0,0,1-2.551-.8,2.589,2.589,0,0,1-.91-2.032,7.188,7.188,0,0,1,.068-.978q.069-.5.22-1.129l1.129-4q.151-.574.254-1.088a4.728,4.728,0,0,0,.1-.936,1.448,1.448,0,0,0-.316-1.068,1.784,1.784,0,0,0-1.207-.3,3.164,3.164,0,0,0-.9.137c-.307.091-.57.178-.79.26l.3-1.232q1.109-.452,2.122-.773a6.348,6.348,0,0,1,1.919-.322,3.651,3.651,0,0,1,2.512.787,2.613,2.613,0,0,1,.883,2.045c0,.174-.019.48-.061.917a6.132,6.132,0,0,1-.226,1.2l-1.124,3.979a10.57,10.57,0,0,0-.247,1.1,5.642,5.642,0,0,0-.11.93,1.34,1.34,0,0,0,.354,1.081,2,2,0,0,0,1.23.287,3.551,3.551,0,0,0,.93-.144A5.2,5.2,0,0,0,40.375,19.222ZM40.66,2.516a2.329,2.329,0,0,1-.786,1.772,2.677,2.677,0,0,1-1.893.733,2.707,2.707,0,0,1-1.9-.733,2.323,2.323,0,0,1-.794-1.772A2.347,2.347,0,0,1,36.077.738a2.809,2.809,0,0,1,3.8,0A2.351,2.351,0,0,1,40.66,2.516Z" fill="#fff"/>
  </g>
</svg>
