<svg xmlns="http://www.w3.org/2000/svg" width="68.778" height="25.022" viewBox="0 0 68.778 25.022">
  <g id="Group_5711" data-name="Group 5711" transform="translate(-26.649)" opacity="0.441">
    <path id="network" d="M36.357,18.664a12.511,12.511,0,1,0,3.664,8.847A12.429,12.429,0,0,0,36.357,18.664Zm.474,3.3a20.2,20.2,0,0,0-7.336.407,18.556,18.556,0,0,1,2.869-4.561A10.926,10.926,0,0,1,36.832,21.963Zm-6.082-4.809a20.2,20.2,0,0,0-3.287,5.825,20.253,20.253,0,0,0-4.9,2.551A18.583,18.583,0,0,1,20.2,19.5a10.84,10.84,0,0,1,10.553-2.35Zm-3.9,7.854a20.247,20.247,0,0,0-.591,4.857s0,.007,0,.01a18.528,18.528,0,0,1-2.761-2.969A18.585,18.585,0,0,1,26.846,25.009ZM18.839,21a20.082,20.082,0,0,0,2.4,5.554,20.2,20.2,0,0,0-3.98,4.521A10.836,10.836,0,0,1,18.839,21ZM18.1,32.9a18.539,18.539,0,0,1,4.089-4.974,20.455,20.455,0,0,0,4.192,4.163,20.328,20.328,0,0,0,1.739,6.252c-.2.011-.4.017-.607.017A10.857,10.857,0,0,1,18.1,32.9Zm10.143.414a20.061,20.061,0,0,0,6.39,2.373,10.826,10.826,0,0,1-4.786,2.417A18.63,18.63,0,0,1,28.242,33.317Zm7.782.912a18.551,18.551,0,0,1-8.06-3.043q-.047-.658-.048-1.32a18.567,18.567,0,0,1,.855-5.573,18.556,18.556,0,0,1,8.929-.511,10.838,10.838,0,0,1-1.676,10.448Z" transform="translate(40.42 -15)" fill="#fff"/>
    <path id="Icon_ionic-ios-arrow-back" data-name="Icon ionic-ios-arrow-back" d="M1.654,4.8l3.632-3.63A.686.686,0,0,0,4.315.2L.2,4.313a.685.685,0,0,0-.02.946L4.312,9.4a.686.686,0,1,0,.972-.969Z" transform="translate(85.327 15.255) rotate(-90)" fill="#fff" stroke="#fff" stroke-width="1"/>
    <text id="EN" transform="translate(26.649 19.011)" fill="#fff" font-size="18" font-family="Pangram-Bold, Pangram" font-weight="700"><tspan x="0" y="0">EN</tspan></text>
  </g>
</svg>
